<svg width="78" height="108" viewBox="0 0 78 108" fill="none" xmlns="http://www.w3.org/2000/svg">
<g filter="url(#filter0_d_172_283)">
<rect x="13" y="11" width="48" height="78" rx="4" fill="white"/>
<path d="M53 15H21C18.7909 15 17 16.7909 17 19V51C17 53.2091 18.7909 55 21 55H53C55.2091 55 57 53.2091 57 51V19C57 16.7909 55.2091 15 53 15Z" fill="#000000"/>
<path d="M18.508 65.9V67.904H20.864V68.536H18.508V71H17.732V65.268H21.264V65.9H18.508ZM22.7531 65.108V71H22.0411V65.108H22.7531ZM26.1038 69.176C25.7758 69.1867 25.4958 69.2133 25.2638 69.256C25.0344 69.296 24.8464 69.3493 24.6998 69.416C24.5558 69.4827 24.4504 69.5613 24.3838 69.652C24.3198 69.7427 24.2878 69.844 24.2878 69.956C24.2878 70.0627 24.3051 70.1547 24.3398 70.232C24.3744 70.3093 24.4211 70.3733 24.4798 70.424C24.5411 70.472 24.6118 70.508 24.6918 70.532C24.7744 70.5533 24.8624 70.564 24.9558 70.564C25.0811 70.564 25.1958 70.552 25.2998 70.528C25.4038 70.5013 25.5011 70.464 25.5918 70.416C25.6851 70.368 25.7731 70.3107 25.8558 70.244C25.9411 70.1773 26.0238 70.1013 26.1038 70.016V69.176ZM23.8038 67.52C24.0278 67.304 24.2691 67.1427 24.5278 67.036C24.7864 66.9293 25.0731 66.876 25.3878 66.876C25.6144 66.876 25.8158 66.9133 25.9918 66.988C26.1678 67.0627 26.3158 67.1667 26.4358 67.3C26.5558 67.4333 26.6464 67.5947 26.7078 67.784C26.7691 67.9733 26.7998 68.1813 26.7998 68.408V71H26.4838C26.4144 71 26.3611 70.9893 26.3238 70.968C26.2864 70.944 26.2571 70.8987 26.2358 70.832L26.1558 70.448C26.0491 70.5467 25.9451 70.6347 25.8438 70.712C25.7424 70.7867 25.6358 70.8507 25.5238 70.904C25.4118 70.9547 25.2918 70.9933 25.1638 71.02C25.0384 71.0493 24.8984 71.064 24.7438 71.064C24.5864 71.064 24.4384 71.0427 24.2998 71C24.1611 70.9547 24.0398 70.888 23.9358 70.8C23.8344 70.712 23.7531 70.6013 23.6918 70.468C23.6331 70.332 23.6038 70.172 23.6038 69.988C23.6038 69.828 23.6478 69.6747 23.7358 69.528C23.8238 69.3787 23.9664 69.2467 24.1638 69.132C24.3611 69.0173 24.6184 68.924 24.9358 68.852C25.2531 68.7773 25.6424 68.7347 26.1038 68.724V68.408C26.1038 68.0933 26.0358 67.856 25.8998 67.696C25.7638 67.5333 25.5651 67.452 25.3038 67.452C25.1278 67.452 24.9798 67.4747 24.8598 67.52C24.7424 67.5627 24.6398 67.612 24.5518 67.668C24.4664 67.7213 24.3918 67.7707 24.3278 67.816C24.2664 67.8587 24.2051 67.88 24.1438 67.88C24.0958 67.88 24.0544 67.868 24.0198 67.844C23.9851 67.8173 23.9558 67.7853 23.9317 67.748L23.8038 67.52ZM28.7683 67.432C29.067 67.368 29.3416 67.336 29.5923 67.336C29.891 67.336 30.155 67.38 30.3843 67.468C30.6136 67.556 30.8043 67.6773 30.9563 67.832C31.111 67.9867 31.227 68.1693 31.3043 68.38C31.3843 68.5907 31.4243 68.82 31.4243 69.068C31.4243 69.372 31.371 69.6467 31.2643 69.892C31.1603 70.1373 31.015 70.348 30.8283 70.524C30.6443 70.6973 30.427 70.8307 30.1763 70.924C29.9256 71.0173 29.655 71.064 29.3643 71.064C29.1963 71.064 29.035 71.0467 28.8803 71.012C28.7256 70.98 28.5803 70.936 28.4443 70.88C28.311 70.824 28.187 70.76 28.0723 70.688C27.9576 70.616 27.8563 70.54 27.7683 70.46L27.9883 70.156C28.0363 70.0867 28.099 70.052 28.1763 70.052C28.2296 70.052 28.2896 70.0733 28.3563 70.116C28.423 70.156 28.5043 70.2013 28.6003 70.252C28.6963 70.3027 28.8083 70.3493 28.9363 70.392C29.067 70.432 29.2216 70.452 29.4003 70.452C29.6003 70.452 29.7803 70.42 29.9403 70.356C30.1003 70.292 30.2376 70.2013 30.3523 70.084C30.467 69.964 30.555 69.8213 30.6163 69.656C30.6776 69.4907 30.7083 69.3053 30.7083 69.1C30.7083 68.9213 30.6816 68.76 30.6283 68.616C30.5776 68.472 30.499 68.3493 30.3923 68.248C30.2883 68.1467 30.1576 68.068 30.0003 68.012C29.843 67.956 29.659 67.928 29.4483 67.928C29.3043 67.928 29.1536 67.94 28.9963 67.964C28.8416 67.988 28.683 68.0267 28.5203 68.08L28.0723 67.948L28.5323 65.268H31.2483V65.58C31.2483 65.6813 31.2163 65.7653 31.1523 65.832C31.091 65.896 30.9843 65.928 30.8323 65.928H29.0323L28.7683 67.432ZM36.3609 68.136C36.3609 68.6373 36.3063 69.072 36.1969 69.44C36.0903 69.8053 35.9436 70.108 35.7569 70.348C35.5703 70.588 35.3489 70.7667 35.0929 70.884C34.8396 71.0013 34.5676 71.06 34.2769 71.06C33.9836 71.06 33.7103 71.0013 33.4569 70.884C33.2063 70.7667 32.9876 70.588 32.8009 70.348C32.6143 70.108 32.4676 69.8053 32.3609 69.44C32.2543 69.072 32.2009 68.6373 32.2009 68.136C32.2009 67.6347 32.2543 67.2 32.3609 66.832C32.4676 66.464 32.6143 66.16 32.8009 65.92C32.9876 65.6773 33.2063 65.4973 33.4569 65.38C33.7103 65.2627 33.9836 65.204 34.2769 65.204C34.5676 65.204 34.8396 65.2627 35.0929 65.38C35.3489 65.4973 35.5703 65.6773 35.7569 65.92C35.9436 66.16 36.0903 66.464 36.1969 66.832C36.3063 67.2 36.3609 67.6347 36.3609 68.136ZM35.6209 68.136C35.6209 67.6987 35.5836 67.332 35.5089 67.036C35.4369 66.7373 35.3383 66.4973 35.2129 66.316C35.0903 66.1347 34.9476 66.0053 34.7849 65.928C34.6223 65.848 34.4529 65.808 34.2769 65.808C34.1009 65.808 33.9316 65.848 33.7689 65.928C33.6063 66.0053 33.4636 66.1347 33.3409 66.316C33.2183 66.4973 33.1196 66.7373 33.0449 67.036C32.9729 67.332 32.9369 67.6987 32.9369 68.136C32.9369 68.5733 32.9729 68.94 33.0449 69.236C33.1196 69.532 33.2183 69.7707 33.3409 69.952C33.4636 70.1333 33.6063 70.264 33.7689 70.344C33.9316 70.4213 34.1009 70.46 34.2769 70.46C34.4529 70.46 34.6223 70.4213 34.7849 70.344C34.9476 70.264 35.0903 70.1333 35.2129 69.952C35.3383 69.7707 35.4369 69.532 35.5089 69.236C35.5836 68.94 35.6209 68.5733 35.6209 68.136ZM41.0016 68.136C41.0016 68.6373 40.9469 69.072 40.8376 69.44C40.7309 69.8053 40.5842 70.108 40.3976 70.348C40.2109 70.588 39.9896 70.7667 39.7336 70.884C39.4802 71.0013 39.2082 71.06 38.9176 71.06C38.6242 71.06 38.3509 71.0013 38.0976 70.884C37.8469 70.7667 37.6282 70.588 37.4416 70.348C37.2549 70.108 37.1082 69.8053 37.0016 69.44C36.8949 69.072 36.8416 68.6373 36.8416 68.136C36.8416 67.6347 36.8949 67.2 37.0016 66.832C37.1082 66.464 37.2549 66.16 37.4416 65.92C37.6282 65.6773 37.8469 65.4973 38.0976 65.38C38.3509 65.2627 38.6242 65.204 38.9176 65.204C39.2082 65.204 39.4802 65.2627 39.7336 65.38C39.9896 65.4973 40.2109 65.6773 40.3976 65.92C40.5842 66.16 40.7309 66.464 40.8376 66.832C40.9469 67.2 41.0016 67.6347 41.0016 68.136ZM40.2616 68.136C40.2616 67.6987 40.2242 67.332 40.1496 67.036C40.0776 66.7373 39.9789 66.4973 39.8536 66.316C39.7309 66.1347 39.5882 66.0053 39.4256 65.928C39.2629 65.848 39.0936 65.808 38.9176 65.808C38.7416 65.808 38.5722 65.848 38.4096 65.928C38.2469 66.0053 38.1042 66.1347 37.9816 66.316C37.8589 66.4973 37.7602 66.7373 37.6856 67.036C37.6136 67.332 37.5776 67.6987 37.5776 68.136C37.5776 68.5733 37.6136 68.94 37.6856 69.236C37.7602 69.532 37.8589 69.7707 37.9816 69.952C38.1042 70.1333 38.2469 70.264 38.4096 70.344C38.5722 70.4213 38.7416 70.46 38.9176 70.46C39.0936 70.46 39.2629 70.4213 39.4256 70.344C39.5882 70.264 39.7309 70.1333 39.8536 69.952C39.9789 69.7707 40.0776 69.532 40.1496 69.236C40.2242 68.94 40.2616 68.5733 40.2616 68.136Z" fill="black"/>
<path d="M19.92 79.48H18.932L18.672 80.784H19.66L19.92 79.48ZM21.432 78.956L21.38 79.256C21.3667 79.3333 21.3347 79.3907 21.284 79.428C21.236 79.4627 21.1613 79.48 21.06 79.48H20.508L20.248 80.784H20.964C21.0413 80.784 21.096 80.8067 21.128 80.852C21.1627 80.8947 21.172 80.9707 21.156 81.08L21.12 81.308H20.172L19.836 83H19.512C19.4773 83 19.4453 82.992 19.416 82.976C19.3867 82.96 19.3613 82.9387 19.34 82.912C19.3213 82.8853 19.308 82.8533 19.3 82.816C19.292 82.7787 19.292 82.7373 19.3 82.692L19.584 81.308H18.596L18.312 82.728C18.296 82.8267 18.2573 82.8973 18.196 82.94C18.1347 82.98 18.0653 83 17.988 83H17.668L18.008 81.308H17.424C17.3493 81.308 17.2947 81.2867 17.26 81.244C17.228 81.1987 17.22 81.1213 17.236 81.012L17.268 80.784H18.084L18.344 79.48H17.416L17.468 79.184C17.4813 79.1067 17.512 79.0493 17.56 79.012C17.6107 78.9747 17.6867 78.956 17.788 78.956H18.42L18.708 77.524C18.724 77.444 18.76 77.3813 18.816 77.336C18.8747 77.2907 18.944 77.268 19.024 77.268H19.344L19.008 78.956H19.996L20.332 77.268H20.648C20.7253 77.268 20.7853 77.2933 20.828 77.344C20.8733 77.3947 20.8893 77.4587 20.876 77.536L20.584 78.956H21.432ZM23.1486 77.9V79.904H25.5046V80.536H23.1486V83H22.3726V77.268H25.9046V77.9H23.1486ZM28.4841 82.496C28.6707 82.496 28.8374 82.4707 28.9841 82.42C29.1334 82.3667 29.2587 82.2933 29.3601 82.2C29.4641 82.104 29.5427 81.9907 29.5961 81.86C29.6521 81.7267 29.6801 81.58 29.6801 81.42C29.6801 81.2227 29.6467 81.0547 29.5801 80.916C29.5161 80.7747 29.4281 80.66 29.3161 80.572C29.2067 80.484 29.0801 80.42 28.9361 80.38C28.7921 80.3373 28.6414 80.316 28.4841 80.316C28.3267 80.316 28.1761 80.3373 28.0321 80.38C27.8881 80.42 27.7601 80.484 27.6481 80.572C27.5387 80.66 27.4507 80.7747 27.3841 80.916C27.3201 81.0547 27.2881 81.2227 27.2881 81.42C27.2881 81.58 27.3147 81.7267 27.3681 81.86C27.4241 81.9907 27.5027 82.104 27.6041 82.2C27.7081 82.2933 27.8334 82.3667 27.9801 82.42C28.1294 82.4707 28.2974 82.496 28.4841 82.496ZM28.4841 77.756C28.3134 77.756 28.1627 77.7813 28.0321 77.832C27.9041 77.8827 27.7961 77.952 27.7081 78.04C27.6227 78.128 27.5574 78.2307 27.5121 78.348C27.4694 78.4653 27.4481 78.5907 27.4481 78.724C27.4481 78.8547 27.4667 78.9813 27.5041 79.104C27.5414 79.2267 27.6014 79.336 27.6841 79.432C27.7667 79.5253 27.8734 79.6013 28.0041 79.66C28.1374 79.716 28.2974 79.744 28.4841 79.744C28.6707 79.744 28.8294 79.716 28.9601 79.66C29.0934 79.6013 29.2014 79.5253 29.2841 79.432C29.3667 79.336 29.4267 79.2267 29.4641 79.104C29.5014 78.9813 29.5201 78.8547 29.5201 78.724C29.5201 78.5907 29.4974 78.4653 29.4521 78.348C29.4094 78.2307 29.3441 78.128 29.2561 78.04C29.1707 77.952 29.0627 77.8827 28.9321 77.832C28.8041 77.7813 28.6547 77.756 28.4841 77.756ZM29.3041 80.012C29.6614 80.1133 29.9361 80.2827 30.1281 80.52C30.3201 80.7573 30.4161 81.0613 30.4161 81.432C30.4161 81.6827 30.3681 81.9093 30.2721 82.112C30.1787 82.312 30.0467 82.4827 29.8761 82.624C29.7081 82.7653 29.5054 82.8747 29.2681 82.952C29.0307 83.0267 28.7694 83.064 28.4841 83.064C28.1987 83.064 27.9374 83.0267 27.7001 82.952C27.4627 82.8747 27.2587 82.7653 27.0881 82.624C26.9174 82.4827 26.7854 82.312 26.6921 82.112C26.5987 81.9093 26.5521 81.6827 26.5521 81.432C26.5521 81.0613 26.6481 80.7573 26.8401 80.52C27.0321 80.2827 27.3067 80.1133 27.6641 80.012C27.3627 79.9 27.1347 79.7333 26.9801 79.512C26.8281 79.288 26.7521 79.0213 26.7521 78.712C26.7521 78.5013 26.7934 78.304 26.8761 78.12C26.9587 77.936 27.0761 77.776 27.2281 77.64C27.3801 77.504 27.5614 77.3973 27.7721 77.32C27.9854 77.2427 28.2227 77.204 28.4841 77.204C28.7427 77.204 28.9787 77.2427 29.1921 77.32C29.4054 77.3973 29.5881 77.504 29.7401 77.64C29.8921 77.776 30.0094 77.936 30.0921 78.12C30.1747 78.304 30.2161 78.5013 30.2161 78.712C30.2161 79.0213 30.1387 79.288 29.9841 79.512C29.8321 79.7333 29.6054 79.9 29.3041 80.012ZM32.2527 79.432C32.5514 79.368 32.826 79.336 33.0767 79.336C33.3754 79.336 33.6394 79.38 33.8687 79.468C34.098 79.556 34.2887 79.6773 34.4407 79.832C34.5954 79.9867 34.7114 80.1693 34.7887 80.38C34.8687 80.5907 34.9087 80.82 34.9087 81.068C34.9087 81.372 34.8554 81.6467 34.7487 81.892C34.6447 82.1373 34.4994 82.348 34.3127 82.524C34.1287 82.6973 33.9114 82.8307 33.6607 82.924C33.41 83.0173 33.1394 83.064 32.8487 83.064C32.6807 83.064 32.5194 83.0467 32.3647 83.012C32.21 82.98 32.0647 82.936 31.9287 82.88C31.7954 82.824 31.6714 82.76 31.5567 82.688C31.442 82.616 31.3407 82.54 31.2527 82.46L31.4727 82.156C31.5207 82.0867 31.5834 82.052 31.6607 82.052C31.714 82.052 31.774 82.0733 31.8407 82.116C31.9074 82.156 31.9887 82.2013 32.0847 82.252C32.1807 82.3027 32.2927 82.3493 32.4207 82.392C32.5514 82.432 32.706 82.452 32.8847 82.452C33.0847 82.452 33.2647 82.42 33.4247 82.356C33.5847 82.292 33.722 82.2013 33.8367 82.084C33.9514 81.964 34.0394 81.8213 34.1007 81.656C34.162 81.4907 34.1927 81.3053 34.1927 81.1C34.1927 80.9213 34.166 80.76 34.1127 80.616C34.062 80.472 33.9834 80.3493 33.8767 80.248C33.7727 80.1467 33.642 80.068 33.4847 80.012C33.3274 79.956 33.1434 79.928 32.9327 79.928C32.7887 79.928 32.638 79.94 32.4807 79.964C32.326 79.988 32.1674 80.0267 32.0047 80.08L31.5567 79.948L32.0167 77.268H34.7327V77.58C34.7327 77.6813 34.7007 77.7653 34.6367 77.832C34.5754 77.896 34.4687 77.928 34.3167 77.928H32.5167L32.2527 79.432ZM39.3933 82.324C39.4706 82.324 39.532 82.3467 39.5773 82.392C39.6226 82.4373 39.6453 82.496 39.6453 82.568V83H35.8213V82.756C35.8213 82.7053 35.832 82.6533 35.8533 82.6C35.8746 82.5467 35.908 82.4973 35.9533 82.452L37.7893 80.608C37.9413 80.4533 38.08 80.3053 38.2053 80.164C38.3306 80.02 38.4373 79.876 38.5253 79.732C38.6133 79.588 38.6813 79.4427 38.7293 79.296C38.7773 79.1467 38.8013 78.988 38.8013 78.82C38.8013 78.652 38.7746 78.5053 38.7213 78.38C38.668 78.252 38.5946 78.1467 38.5013 78.064C38.4106 77.9813 38.3026 77.92 38.1773 77.88C38.052 77.8373 37.9173 77.816 37.7733 77.816C37.6266 77.816 37.492 77.8373 37.3693 77.88C37.2466 77.9227 37.1373 77.9827 37.0413 78.06C36.948 78.1347 36.8693 78.224 36.8053 78.328C36.7413 78.432 36.696 78.5467 36.6693 78.672C36.6373 78.7653 36.5933 78.828 36.5373 78.86C36.484 78.8893 36.408 78.8973 36.3093 78.884L35.9373 78.82C35.9746 78.5587 36.0466 78.328 36.1533 78.128C36.2626 77.9253 36.3986 77.756 36.5613 77.62C36.7266 77.484 36.9146 77.3813 37.1253 77.312C37.336 77.24 37.564 77.204 37.8093 77.204C38.052 77.204 38.2786 77.24 38.4893 77.312C38.7 77.384 38.8826 77.4893 39.0373 77.628C39.192 77.764 39.3133 77.9307 39.4013 78.128C39.4893 78.3253 39.5333 78.5493 39.5333 78.8C39.5333 79.0133 39.5013 79.212 39.4373 79.396C39.3733 79.5773 39.2866 79.7507 39.1773 79.916C39.068 80.0813 38.9413 80.2427 38.7973 80.4C38.656 80.5573 38.5053 80.716 38.3453 80.876L36.8333 82.42C36.94 82.3907 37.048 82.368 37.1573 82.352C37.2666 82.3333 37.372 82.324 37.4733 82.324H39.3933ZM40.6059 78.82C40.6433 78.5587 40.7153 78.328 40.8219 78.128C40.9286 77.9253 41.0633 77.756 41.2259 77.62C41.3913 77.484 41.5793 77.3813 41.7899 77.312C42.0033 77.24 42.2326 77.204 42.4779 77.204C42.7206 77.204 42.9446 77.2387 43.1499 77.308C43.3553 77.3773 43.5313 77.476 43.6779 77.604C43.8273 77.732 43.9433 77.8867 44.0259 78.068C44.1086 78.2493 44.1499 78.4507 44.1499 78.672C44.1499 78.8533 44.1259 79.016 44.0779 79.16C44.0326 79.3013 43.9659 79.4253 43.8779 79.532C43.7926 79.6387 43.6886 79.7293 43.5659 79.804C43.4433 79.8787 43.3059 79.94 43.1539 79.988C43.5273 80.084 43.8073 80.2493 43.9939 80.484C44.1833 80.716 44.2779 81.0067 44.2779 81.356C44.2779 81.62 44.2273 81.8573 44.1259 82.068C44.0273 82.2787 43.8913 82.4587 43.7179 82.608C43.5446 82.7547 43.3419 82.868 43.1099 82.948C42.8806 83.0253 42.6339 83.064 42.3699 83.064C42.0659 83.064 41.8059 83.0267 41.5899 82.952C41.3739 82.8747 41.1913 82.7693 41.0419 82.636C40.8926 82.5027 40.7699 82.3453 40.6739 82.164C40.5779 81.98 40.4966 81.7813 40.4299 81.568L40.7379 81.44C40.8179 81.4053 40.8953 81.396 40.9699 81.412C41.0473 81.428 41.1033 81.472 41.1379 81.544C41.1726 81.6187 41.2153 81.708 41.2659 81.812C41.3193 81.916 41.3913 82.016 41.4819 82.112C41.5726 82.208 41.6873 82.2893 41.8259 82.356C41.9673 82.4227 42.1459 82.456 42.3619 82.456C42.5619 82.456 42.7366 82.424 42.8859 82.36C43.0379 82.2933 43.1633 82.208 43.2619 82.104C43.3633 82 43.4393 81.884 43.4899 81.756C43.5406 81.628 43.5659 81.5013 43.5659 81.376C43.5659 81.2213 43.5459 81.08 43.5059 80.952C43.4659 80.824 43.3913 80.7133 43.2819 80.62C43.1726 80.5267 43.0219 80.4533 42.8299 80.4C42.6406 80.3467 42.3966 80.32 42.0979 80.32V79.804C42.3433 79.8013 42.5513 79.7747 42.7219 79.724C42.8953 79.6733 43.0353 79.604 43.1419 79.516C43.2513 79.428 43.3299 79.3227 43.3779 79.2C43.4286 79.0773 43.4539 78.9413 43.4539 78.792C43.4539 78.6267 43.4273 78.4827 43.3739 78.36C43.3233 78.2373 43.2526 78.136 43.1619 78.056C43.0713 77.976 42.9633 77.916 42.8379 77.876C42.7153 77.836 42.5819 77.816 42.4379 77.816C42.2939 77.816 42.1593 77.8373 42.0339 77.88C41.9113 77.9227 41.8019 77.9827 41.7059 78.06C41.6126 78.1347 41.5339 78.224 41.4699 78.328C41.4059 78.432 41.3606 78.5467 41.3339 78.672C41.2993 78.7653 41.2553 78.828 41.2019 78.86C41.1513 78.8893 41.0766 78.8973 40.9779 78.884L40.6059 78.82ZM46.1746 79.432C46.4732 79.368 46.7479 79.336 46.9986 79.336C47.2972 79.336 47.5612 79.38 47.7906 79.468C48.0199 79.556 48.2106 79.6773 48.3626 79.832C48.5172 79.9867 48.6332 80.1693 48.7106 80.38C48.7906 80.5907 48.8306 80.82 48.8306 81.068C48.8306 81.372 48.7772 81.6467 48.6706 81.892C48.5666 82.1373 48.4212 82.348 48.2346 82.524C48.0506 82.6973 47.8332 82.8307 47.5826 82.924C47.3319 83.0173 47.0612 83.064 46.7706 83.064C46.6026 83.064 46.4412 83.0467 46.2866 83.012C46.1319 82.98 45.9866 82.936 45.8506 82.88C45.7172 82.824 45.5932 82.76 45.4786 82.688C45.3639 82.616 45.2626 82.54 45.1746 82.46L45.3946 82.156C45.4426 82.0867 45.5052 82.052 45.5826 82.052C45.6359 82.052 45.6959 82.0733 45.7626 82.116C45.8292 82.156 45.9106 82.2013 46.0066 82.252C46.1026 82.3027 46.2146 82.3493 46.3426 82.392C46.4732 82.432 46.6279 82.452 46.8066 82.452C47.0066 82.452 47.1866 82.42 47.3466 82.356C47.5066 82.292 47.6439 82.2013 47.7586 82.084C47.8732 81.964 47.9612 81.8213 48.0226 81.656C48.0839 81.4907 48.1146 81.3053 48.1146 81.1C48.1146 80.9213 48.0879 80.76 48.0346 80.616C47.9839 80.472 47.9052 80.3493 47.7986 80.248C47.6946 80.1467 47.5639 80.068 47.4066 80.012C47.2492 79.956 47.0652 79.928 46.8546 79.928C46.7106 79.928 46.5599 79.94 46.4026 79.964C46.2479 79.988 46.0892 80.0267 45.9266 80.08L45.4786 79.948L45.9386 77.268H48.6546V77.58C48.6546 77.6813 48.6226 77.7653 48.5586 77.832C48.4972 77.896 48.3906 77.928 48.2386 77.928H46.4386L46.1746 79.432Z" fill="black"/>
</g>
<defs>
<filter id="filter0_d_172_283" x="0.5" y="0.5" width="77" height="107" filterUnits="userSpaceOnUse" color-interpolation-filters="sRGB">
<feFlood flood-opacity="0" result="BackgroundImageFix"/>
<feColorMatrix in="SourceAlpha" type="matrix" values="0 0 0 0 0 0 0 0 0 0 0 0 0 0 0 0 0 0 127 0" result="hardAlpha"/>
<feMorphology radius="1" operator="erode" in="SourceAlpha" result="effect1_dropShadow_172_283"/>
<feOffset dx="2" dy="4"/>
<feGaussianBlur stdDeviation="7.75"/>
<feComposite in2="hardAlpha" operator="out"/>
<feColorMatrix type="matrix" values="0 0 0 0 0 0 0 0 0 0 0 0 0 0 0 0 0 0 0.25 0"/>
<feBlend mode="normal" in2="BackgroundImageFix" result="effect1_dropShadow_172_283"/>
<feBlend mode="normal" in="SourceGraphic" in2="effect1_dropShadow_172_283" result="shape"/>
</filter>
</defs>
</svg>
